<?xml version="1.0" encoding="UTF-8" standalone="no"?>
<svg
   width="128"
   zoomAndPan="magnify"
   viewBox="0 0 96 95.999999"
   height="128"
   preserveAspectRatio="xMidYMid meet"
   version="1.0"
   id="svg14"
   xmlns="http://www.w3.org/2000/svg"
   xmlns:svg="http://www.w3.org/2000/svg">
  <path
     style="fill:#cccccc"
     d="M 361,835.87927 C 357.16202,834.35336 353.41123,830.3733 346.03544,820 c -10.76256,-15.13644 -15.35677,-23.69845 -15.28441,-28.48484 0.11666,-7.71682 12.23769,-36.19139 19.84336,-46.61577 l 3.35662,-4.60061 0.27449,-36.64979 c 0.15098,-20.15739 0.0495,-36.63295 -0.2255,-36.61235 -0.275,0.0206 -8.3738,11.75177 -17.99734,26.06926 -9.62354,14.31749 -18.25111,26.71396 -19.17239,27.5477 -0.92127,0.83374 -3.47576,1.75742 -5.67664,2.05262 -5.3854,0.72233 -9.15363,-2.7624 -9.15363,-8.46498 0,-4.80653 0.1529,-5.04496 28.34714,-44.20318 L 353,638.57613 V 610.28806 C 353,594.72963 352.81416,582 352.58702,582 c -0.22713,0 -15.69285,18.1125 -34.36826,40.25 -18.67541,22.1375 -35.02707,41.22914 -36.33702,42.42587 -3.42448,3.12848 -7.10426,3.77754 -10.74439,1.89516 C 267.21209,664.5412 266,662.22047 266,656.73483 c 0,-4.32772 0.65896,-5.18549 42.03378,-54.71589 23.11858,-27.67559 42.35608,-50.81418 42.75,-51.41909 0.57945,-0.88982 2.08616,-51.31923 1.56609,-52.41665 -0.0826,-0.17424 -7.7638,4.03783 -17.06939,9.36015 l -16.91925,9.67695 -7.12809,11.86984 -7.12809,11.86984 2.34623,9.27001 c 2.96087,11.69845 4.88436,24.29659 4.15394,27.20682 -1.10356,4.39693 -4.96274,7.72437 -14.52301,12.52194 -5.33592,2.67768 -15.22253,6.74738 -21.97025,9.04376 -10.767,3.66423 -12.61909,4.03007 -15.13225,2.98909 -2.46715,-1.02193 -3.0729,-2.10731 -4.37486,-7.83888 -3.00592,-13.23289 -4.59565,-24.5276 -4.81575,-34.21491 -0.19351,-8.517 0.0518,-10.26075 1.78099,-12.65779 2.73422,-3.79032 12.72343,-8.54819 25.98771,-12.37797 l 11.05781,-3.19271 6.69219,-12.18487 L 302,507.3396 V 488.1698 C 302,477.62641 301.75379,469 301.45286,469 c -0.30093,0 -10.40127,5.9598 -22.4452,13.244 l -21.89805,13.24399 -2.61774,7.00601 c -1.43975,3.8533 -11.63671,31.531 -22.6599,61.506 -21.78938,59.25115 -21.9967,59.67589 -29.62708,60.69934 -3.61617,0.48503 -4.47353,0.18587 -7.15662,-2.49722 C 192.85724,620.01108 192,618.20662 192,615.78557 c 0,-1.85255 7.01063,-22.69967 15.57918,-46.32692 21.2056,-58.47316 21.34496,-58.86785 20.932,-59.2808 -0.20028,-0.20028 -11.47059,6.31527 -25.04514,14.479 L 178.78503,539.5 161.14252,578.42182 C 142.24521,620.11188 141.44584,621.4 134.47142,621.4 c -4.37173,0 -7.33208,-2.76648 -8.11357,-7.58223 -0.5066,-3.12186 1.16838,-7.12471 13.53739,-32.3515 7.76353,-15.83387 13.92862,-28.97574 13.7002,-29.20416 -0.22843,-0.22843 -14.60391,7.99894 -31.94552,18.28305 C 91.417484,588.47392 90.052587,589.41345 88.488801,593.37177 85.11628,601.90842 70.205761,622.6178 61.036905,631.5 l -4.129091,4 -10.031242,0.34612 c -10.418509,0.35949 -30.758126,-1.21958 -36.9242009,-2.86661 -4.1479699,-1.10797 -8.4232042,-5.32652 -9.33901169,-9.21518 -0.803466,-3.41164 1.83611439,-11.45181 7.85387229,-23.92293 8.3385563,-17.2807 11.5907223,-22.10754 16.5480603,-24.56049 6.667941,-3.29939 21.439918,-5.46731 39.572733,-5.80766 l 16.088025,-0.30198 30.91197,-17.20643 c 17.00159,-9.46354 31.33948,-17.60208 31.86198,-18.08564 0.56373,-0.52172 -0.24947,-0.88304 -2,-0.88864 -1.6225,-0.005 -15.1,-0.8968 -29.95,-1.98134 -14.85,-1.08455 -28.2825,-1.9803 -29.85,-1.99056 -3.646151,-0.0239 -9.65,-5.79989 -9.65,-9.2838 0,-3.46918 3.396491,-7.38058 7.619113,-8.77417 3.784488,-1.24899 4.620704,-1.18481 60.101217,4.61282 12.77119,1.33457 24.37054,2.42649 25.77635,2.42649 1.4058,0 11.20665,-4.87118 21.77966,-10.82484 C 197.84935,501.2215 208.8625,495.07499 211.75,493.51623 217.18743,490.58096 218.36719,489 215.12016,489 213.40818,489 125.47878,473.39767 113.33262,470.93865 106.65469,469.5867 103,466.10182 103,461.08614 c 0,-4.53082 2.27158,-7.88384 6.55304,-9.67275 3.72014,-1.55437 -0.35254,-2.17015 85.94696,12.99483 l 48,8.4348 21.04614,-11.4122 c 11.57537,-6.27671 21.85382,-12.00279 22.84099,-12.72463 1.60491,-1.17354 0.0586,-2.322 -14.61116,-10.85178 l -16.40602,-9.53934 -13.86572,-0.58136 -13.86571,-0.58135 -9.06926,8.57726 c -4.98809,4.71749 -11.76926,10.34546 -15.06926,12.5066 -8.08388,5.29404 -10.61034,4.90614 -23.265,-3.57203 -10.32383,-6.9166 -28.15674,-22.00295 -28.35035,-23.98393 -0.0634,-0.64914 -0.1842,-1.85526 -0.26835,-2.68026 -0.21345,-2.09272 2.49733,-5.02486 12.8837,-13.93581 C 180.19446,391.45714 190.59735,385 196.21369,385 c 4.4195,0 11.95386,5.1666 22.845,15.66568 L 227.70422,409 h 13.89917 13.89917 l 16.74872,-9.72837 c 9.2118,-5.35061 16.72964,-9.96311 16.70632,-10.25 -0.0233,-0.2869 -10.15231,-6.03514 -22.50887,-12.77387 l -22.46646,-12.25223 -63.74105,11.00223 C 145.18365,381.04899 115.13776,386 113.47259,386 c -3.05,0 -6.93858,-2.09606 -9.19079,-4.95411 -3.05804,-3.88066 -0.23446,-12.97447 4.49429,-14.47454 0.94815,-0.30078 25.73972,-4.80569 55.09238,-10.01091 29.35266,-5.20523 53.49631,-9.59824 53.65257,-9.76224 0.15625,-0.16401 -11.04298,-6.63889 -24.88719,-14.38862 l -25.17128,-14.09041 -37.98129,3.83116 c -20.8897,2.10715 -40.505504,3.89815 -43.590668,3.98002 -9.980045,0.26482 -15.925719,-5.63948 -12.632769,-12.54486 2.040173,-4.27829 7.026387,-6.57443 14.393286,-6.62809 7.856628,-0.0572 55.201041,-3.47624 55.750901,-4.02609 0.23945,-0.23945 -13.81555,-8.36781 -31.23334,-18.06302 L 80.5,267.24064 l -14,-0.0611 c -14.789554,-0.0645 -33.913542,-2.64559 -40.722404,-5.49608 -4.628675,-1.93777 -8.70838,-8.10446 -17.6399747,-26.66374 -12.4862638,-25.94565 -9.9153109,-30.99086 17.1224767,-33.60094 18.165032,-1.75355 26.966286,-1.76888 31.070308,-0.0541 6.517065,2.72301 26.476933,28.16728 32.138663,40.96945 l 2.341396,5.29432 31.469685,18.68577 C 139.58847,276.5914 153.99639,285 154.29775,285 c 0.30136,0 -5.67593,-12.74749 -13.28287,-28.32775 -13.52497,-27.70135 -14.3665,-29.75412 -14.13003,-34.4677 0.16859,-3.36077 4.45539,-7.20455 8.0349,-7.20455 6.61851,0 8.55234,3.16334 27.12719,44.37424 l 17.30505,38.39368 24.53703,14.56967 c 13.49537,8.01333 24.67947,14.42725 24.85356,14.25317 0.17408,-0.17409 -8.06875,-23.56982 -18.31741,-51.99052 -20.20917,-56.04239 -20.25472,-56.22935 -14.75313,-60.55691 1.59421,-1.254 4.08466,-2.04333 6.44704,-2.04333 7.82855,0 7.56712,-0.54333 31.99794,66.5 12.22574,33.55 22.93835,61.74445 23.8058,62.65434 C 259.31354,342.61309 300.63101,368 301.61443,368 301.82649,368 302,359.20353 302,348.45228 l 0,-19.54771 -6.60198,-11.9412 c -6.34227,-11.47144 -6.76517,-11.98312 -10.75,-13.00671 -17.97122,-4.61627 -30.83549,-10.48472 -33.25959,-15.17242 -3.71135,-7.17695 1.55552,-48.89118 6.69889,-53.05603 2.8436,-2.30261 3.93143,-2.11578 18.91268,3.24821 16.01213,5.73309 28.87997,12.61847 31.81477,17.02358 2.0981,3.14922 2.26256,4.19252 1.64097,10.40982 -0.37995,3.80041 -1.95775,12.03282 -3.50621,18.29424 l -2.81538,11.38442 7.11354,11.84561 7.11354,11.84561 16.80246,9.61015 c 9.24135,5.28558 16.92257,9.61077 17.06938,9.61153 0.64157,0.003 -0.80845,-51.61738 -1.47891,-52.64915 -0.41021,-0.63127 -19.64771,-23.7696 -42.75,-51.41849 C 266.65507,185.44701 266,184.59444 266,180.26577 c 0,-5.63782 1.36387,-8.10203 5.42293,-9.79801 3.84611,-1.60701 7.1763,-0.99481 10.44581,1.92027 1.30281,1.16159 17.64936,20.21895 36.32566,42.34971 18.67631,22.13076 34.26037,40.42589 34.63126,40.65585 0.37089,0.22995 0.44934,-12.70203 0.17434,-28.73775 L 352.5,197.5 329.21983,165.25603 c -28.25224,-39.13049 -27.63415,-38.13035 -26.9084,-43.54123 0.75066,-5.59658 3.79351,-8.09819 9.00073,-7.39976 2.11369,0.28351 4.59684,1.19762 5.51811,2.03136 0.92128,0.83374 9.54885,13.23021 19.17239,27.5477 9.62354,14.31749 17.72234,26.04866 17.99734,26.06926 0.275,0.0206 0.37648,-16.45496 0.2255,-36.61235 l -0.27449,-36.649794 -3.35662,-4.600608 C 342.9845,81.670441 330.84268,53.142582 330.77936,45.544116 330.73941,40.749953 335.65854,31.536488 346.01926,17 c 16.06943,-22.5460295 21.44893,-22.3343306 38.11664,1.5 9.46242,13.530973 14.12278,22.479329 14.08474,27.044116 -0.0633,7.598466 -12.20514,36.126325 -19.81503,46.556492 l -3.35662,4.600608 -0.27449,36.649794 c -0.15098,20.15739 -0.0495,36.6322 0.2255,36.6107 0.275,-0.0215 7.925,-11.11862 17,-24.66025 9.075,-13.54163 17.53963,-25.88391 18.81028,-27.4273 2.45669,-2.98399 7.5517,-4.52882 11.15971,-3.38368 3.08431,0.97892 5.44436,6.48731 4.63284,10.8131 -0.44813,2.38875 -8.71574,14.75429 -25.63216,38.33707 L 376,198.45164 v 28.27418 c 0,15.5508 0.1863,28.27418 0.41401,28.27418 0.2277,0 15.69927,-18.1125 34.38125,-40.25 18.68199,-22.1375 35.03319,-41.20038 36.336,-42.36197 3.26951,-2.91508 6.5997,-3.52728 10.44581,-1.92027 4.05895,1.69593 5.42293,4.16019 5.42293,9.79741 0,4.32772 -0.65896,5.18549 -42.03378,54.71589 -23.11858,27.67559 -42.35608,50.81418 -42.75,51.41909 -0.65085,0.99946 -2.07269,52.60445 -1.44929,52.60123 0.14681,-7.6e-4 7.82803,-4.32595 17.06938,-9.61153 l 16.80246,-9.61015 7.12809,-11.86984 7.12809,-11.86984 -2.34284,-9.27001 c -3.12157,-12.35124 -4.94291,-24.07681 -4.19977,-27.0377 1.14709,-4.57039 4.8975,-7.83939 14.50573,-12.64377 9.70723,-4.85389 31.82744,-13.11584 34.95756,-13.05674 3.97884,0.0751 5.40245,2.72596 7.79908,14.52227 3.1889,15.69595 4.72609,32.46657 3.42035,37.31573 -1.84913,6.86715 -8.30024,10.67045 -27.47735,16.19945 l -11.18391,3.22446 -6.68585,12.10315 -6.68585,12.10314 -0.001,19.25 c -5.8e-4,10.5875 0.26404,19.25 0.58805,19.25 0.324,0 10.43073,-5.9625 22.45939,-13.25 l 21.87029,-13.25 6.47428,-17.5 c 3.56085,-9.625 13.74566,-37.3 22.63289,-61.5 17.624,-47.99026 18.23957,-49.18941 25.76916,-50.19934 3.61617,-0.48503 4.47353,-0.18587 7.15662,2.49722 2.23445,2.23446 3.04827,3.98109 3.04827,6.54227 0,2.02869 -7.73319,24.80274 -18.43957,54.30403 -10.14176,27.94551 -18.27484,50.97474 -18.07351,51.17607 0.20132,0.20132 11.46762,-6.31337 25.03623,-14.4771 L 550.19333,297.5 567.84666,258.57882 c 18.34633,-40.44905 19.19978,-41.88006 25.74019,-43.15964 4.11649,-0.80536 8.26234,2.70843 9.05197,7.67192 0.50103,3.14941 -1.16397,7.1361 -13.53708,32.41335 -7.7596,15.85224 -13.91387,29.01675 -13.67616,29.25447 0.23772,0.23771 14.59436,-7.97224 31.90365,-18.24435 l 31.47144,-18.67657 2.03619,-4.89961 c 3.04288,-7.32198 15.52325,-25.10841 23.70674,-33.7857 l 7.21718,-7.65269 10.83726,-0.34728 c 10.95186,-0.35096 29.92432,1.14556 36.44959,2.87508 4.33914,1.15009 8.51802,5.40926 9.39397,9.57448 0.96906,4.60791 -5.88614,21.44899 -15.62989,38.39772 -3.54621,6.16846 -5.11064,7.89398 -8.81171,9.71909 -6.71783,3.31278 -21.45856,5.46751 -39.74283,5.80944 l -16.24283,0.30375 -16.75717,9.43871 c -9.21644,5.19129 -23.50717,13.21652 -31.75717,17.83386 -11.44075,6.40312 -14.40679,8.4539 -12.5,8.64273 5.60625,0.55521 58.37936,4.25242 60.69795,4.25242 3.29582,0 9.30205,5.9824 9.30205,9.26514 0,1.35583 -0.90704,3.61825 -2.01564,5.02761 -4.11597,5.23261 -5.3376,5.24765 -51.25602,0.63097 L 561.5,318.67805 536.75,332.52952 c -13.6125,7.6183 -24.75,14.21574 -24.75,14.66097 0,0.44523 0.84399,0.80951 1.87553,0.80951 1.80529,0 100.32124,17.52259 104.83463,18.64647 4.16469,1.03704 7.28984,4.93104 7.28984,9.08327 0,4.72659 -2.22458,8.04832 -6.61989,9.8848 -3.6618,1.53 -0.26052,2.0533 -97.38011,-14.98246 l -36.5,-6.40248 -21,11.33466 c -11.55,6.23406 -21.82845,11.9438 -22.84099,12.68832 -1.66901,1.2272 -0.30801,2.24503 14.56838,10.89496 l 16.40938,9.54129 14.0634,0.55673 14.06341,0.55673 5.36821,-5.4667 c 6.81291,-6.9379 17.36143,-15.56834 21.773,-17.81393 5.16677,-2.63 9.32794,-1.40784 20.07623,5.8965 8.89663,6.04599 27.91645,21.88432 28.10231,23.40158 0.63096,5.15057 0.43075,5.49078 -7.50586,12.75445 C 553.19107,442.65598 538.97778,452 532.9442,452 c -4.82977,0 -11.19981,-4.30476 -22.54228,-15.23365 L 501.30384,428 h -13.93421 l -13.93421,0 -16.71771,9.68676 c -9.19474,5.32771 -16.70085,9.94021 -16.68024,10.25 0.0206,0.30978 10.16665,6.08964 22.54676,12.84412 l 22.50931,12.28088 25.70323,-4.49998 c 50.05632,-8.76359 96.75822,-16.76332 100.89372,-17.28244 5.55563,-0.69739 8.44653,0.1304 11.65289,3.33677 3.45658,3.45658 3.63587,9.13658 0.40662,12.88203 -2.62005,3.03888 -4.0731,3.35047 -67.75,14.52835 -22.275,3.91016 -41.48161,7.41631 -42.68136,7.79145 -1.76217,0.55099 2.66637,3.39693 23.04481,14.80946 l 25.22617,14.12739 37.95519,-3.85804 c 20.87535,-2.12193 40.50478,-3.91459 43.62094,-3.9837 10.01448,-0.2221 15.86877,5.59731 12.57641,12.50146 -2.04018,4.27829 -7.02639,6.57443 -14.39329,6.62809 -7.85173,0.0572 -55.20604,3.47643 -55.73065,4.02407 -0.22832,0.23833 13.82668,8.36889 31.23333,18.06792 l 31.64845,17.63458 14,0.0691 c 14.79842,0.0731 33.97271,2.65251 40.7224,5.47823 4.64522,1.9447 8.78655,8.21856 17.61354,26.68348 7.23631,15.13742 8.42667,20.5 5.68186,25.59681 -2.65518,4.93037 -7.05562,6.46619 -22.91376,7.99729 -25.47327,2.45943 -30.30018,1.94248 -36.46611,-3.90543 -7.91426,-7.50609 -22.57222,-27.90451 -26.61936,-37.04426 L 638.24059,589.5 606.5864,570.61723 c -17.40981,-10.38552 -31.79806,-18.71052 -31.97391,-18.5 -0.17584,0.21052 5.89063,12.98277 13.48104,28.38277 7.59042,15.4 14.05716,29.00871 14.37055,30.24158 0.74396,2.92673 -1.74714,8.80436 -4.31368,10.17793 -7.20141,3.85408 -12.19713,-0.94986 -20.71472,-19.91951 -3.58086,-7.975 -11.28909,-25.13499 -17.12939,-38.13332 l -10.61872,-23.63332 -24.53841,-14.58872 c -13.49612,-8.0238 -24.69184,-14.4353 -24.87936,-14.24777 -0.18753,0.18753 8.04531,23.60065 18.2952,52.02915 20.20042,56.02673 20.24683,56.21703 14.76296,60.53065 -3.39957,2.6741 -8.23074,2.59301 -12.31278,-0.20667 -3.89577,-2.67192 -2.21858,1.48978 -28.51263,-70.75 -10.91038,-29.975 -20.5493,-55.24393 -21.41981,-56.15317 C 469.60797,494.30643 428.49494,469 427.46717,469 427.21023,469 427,477.79647 427,488.54772 v 19.54771 l 6.60198,11.9412 c 6.35078,11.48684 6.75982,11.98108 10.75,12.98914 8.81391,2.22669 24.95679,8.14406 28.75016,10.53871 5.55956,3.50959 6.21509,5.87824 5.51722,19.93552 -0.81522,16.42111 -4.61876,35.27134 -7.60483,37.68932 -1.22985,0.99587 -2.83171,1.81068 -3.55968,1.81068 -2.91458,0 -25.53736,-8.55858 -34.59678,-13.08854 -9.50205,-4.75128 -13.35999,-8.07878 -14.46329,-12.47465 -0.73244,-2.91827 1.19544,-15.5178 4.17669,-27.29653 l 2.369,-9.35973 -7.08029,-11.73977 -7.08029,-11.73977 -16.98981,-9.7173 c -9.3444,-5.34452 -17.05737,-9.57475 -17.13995,-9.40051 -0.52007,1.09742 0.98664,51.52683 1.56609,52.41665 0.39392,0.60491 19.63142,23.7435 42.75,51.41909 C 462.34104,651.54934 463,652.40711 463,656.73483 c 0,5.63722 -1.36398,8.10148 -5.42293,9.79741 -3.84611,1.60701 -7.1763,0.99481 -10.44581,-1.92027 C 445.82845,663.45038 429.47725,644.3875 410.79526,622.25 392.11328,600.1125 376.64171,582 376.41401,582 376.1863,582 376,594.72338 376,610.27418 v 28.27418 l 24.92539,34.74787 c 13.70896,19.11133 25.21972,36.08795 25.57945,37.72582 0.92132,4.19475 -0.28917,8.71348 -2.80653,10.47671 -2.94595,2.06342 -7.94883,1.88209 -10.81345,-0.39194 C 411.57319,720.06557 402.625,707.48224 393,693.14387 c -9.625,-14.33838 -17.725,-26.08663 -18,-26.10723 -0.275,-0.0206 -0.37648,16.45496 -0.2255,36.61235 l 0.27449,36.64979 3.35662,4.60061 c 7.60567,10.42438 19.7267,38.89895 19.84336,46.61577 0.0724,4.78639 -4.52185,13.3484 -15.28441,28.48484 -7.56124,10.63411 -11.14845,14.3755 -15.27966,15.93638 -3.29222,1.24389 -3.41527,1.24284 -6.6849,-0.0571 z"
     id="path15"
     transform="matrix(0.0915638,0,0,0.0913978,16.318399,9.470493)" />
</svg>
